<?xml version="1.0" encoding="UTF-8"?>
<svg width="69px" height="74px" viewBox="0 0 69 74" version="1.1" xmlns="http://www.w3.org/2000/svg" xmlns:xlink="http://www.w3.org/1999/xlink">
    <!-- Generator: Sketch 56.2 (81672) - https://sketch.com -->
    <title>Combined Shape</title>
    <desc>Created with Sketch.</desc>
    <g id="Homepage" stroke="none" stroke-width="1" fill="none" fill-rule="evenodd">
        <g id="1280x790" transform="translate(-1192.000000, -21.000000)" fill="#1901FE">
            <path d="M1239.7,53.9267 C1237.521,56.3837 1234.715,58.3527 1232.067,59.3737 C1226.909,61.3607 1223.247,63.3917 1219.58,67.5267 L1195.18,94.8227 L1192,92.0027 L1216.184,64.5227 C1219.848,60.3907 1221.431,56.5197 1222.784,51.1667 C1223.481,48.4097 1225.106,45.3797 1227.288,42.9187 C1232.006,37.5987 1237.305,37.2307 1240.724,40.2637 C1244.15,43.3027 1244.418,48.6077 1239.7,53.9267 Z M1223.5032,21 L1227.1392,24.451 L1231.9402,23.007 L1228.4892,26.643 L1229.9332,31.444 L1226.2972,27.993 L1221.4962,29.437 L1224.9472,25.801 L1223.5032,21 Z M1255.052,59.1694 L1252.595,60.5144 L1252.376,63.3064 L1251.031,60.8504 L1248.239,60.6304 L1250.695,59.2854 L1250.914,56.4934 L1252.26,58.9504 L1255.052,59.1694 Z M1260.9548,31.8061 L1258.2778,34.8881 L1258.5308,38.9621 L1255.4498,36.2851 L1251.3748,36.5371 L1254.0518,33.4561 L1253.7998,29.3821 L1256.8808,32.0591 L1260.9548,31.8061 Z" id="Combined-Shape"></path>
        </g>
    </g>
</svg>